<svg xmlns="http://www.w3.org/2000/svg" width="18.422" height="20.469" viewBox="14257.955 5989.931 18.422 20.469"><g data-name="CompositeLayer"><path d="M14273.307 5991.978h-1.024v-1.023a1.023 1.023 0 1 0-2.047 0v1.023h-6.14v-1.023a1.023 1.023 0 0 0-2.047 0v1.023h-1.024a3.07 3.07 0 0 0-3.07 3.07v12.282a3.07 3.07 0 0 0 3.07 3.07h12.282a3.07 3.07 0 0 0 3.07-3.07v-12.281a3.07 3.07 0 0 0-3.07-3.07Zm-12.282 2.047h1.024v1.024a1.023 1.023 0 1 0 2.047 0v-1.024h6.14v1.024a1.023 1.023 0 1 0 2.047 0v-1.024h1.024c.565 0 1.023.458 1.023 1.024v4.093h-14.328v-4.093c0-.566.458-1.024 1.023-1.024Zm12.282 14.328h-12.282a1.023 1.023 0 0 1-1.023-1.023v-6.14h14.328v6.14c0 .565-.458 1.023-1.023 1.023Z" fill="#fff" fill-rule="evenodd" data-name="Path 28702"/><path d="M14262 6003.9a1 1 0 1 1 0 .1z" fill="#fff" fill-rule="evenodd" data-name="Ellipse 461"/><path d="M14271.26 6003.236h-4.094a1.023 1.023 0 1 0 0 2.047h4.094a1.023 1.023 0 0 0 0-2.047Z" fill="#fff" fill-rule="evenodd" data-name="Path 28703"/></g></svg>