<svg xmlns="http://www.w3.org/2000/svg" width="17.275" height="15.548" viewBox="13664.728 5387.86 17.275 15.548"><g data-name="CompositeLayer"><path d="M13679.412 5391.316h-2.591v-1.296a2.16 2.16 0 0 0-2.16-2.16h-2.591a2.16 2.16 0 0 0-2.16 2.16v1.296h-2.591a2.591 2.591 0 0 0-2.591 2.591v6.91a2.591 2.591 0 0 0 2.59 2.592h12.094a2.591 2.591 0 0 0 2.591-2.592v-6.91a2.591 2.591 0 0 0-2.591-2.591Zm-7.774-1.296c0-.239.193-.432.432-.432h2.591c.239 0 .432.193.432.432v1.296h-3.455v-1.296Zm1.727 10.365a3.023 3.023 0 1 1 0-6.046 3.023 3.023 0 0 1 0 6.046Z" fill="#34773b" fill-rule="evenodd" data-name="Path 28666"/><path d="M13672.07 5397.262a1.296 1.296 0 1 1 0 .1z" fill="#34773b" fill-rule="evenodd" data-name="Ellipse 446"/></g></svg>