<svg xmlns="http://www.w3.org/2000/svg" width="21" height="21" viewBox="29 167 21 21"><g data-name="Layer 2"><g data-name="camera"><path d="M29 167h21v21H29v-21z" fill="#34773b" fill-rule="evenodd" data-name="Rectangle 1761"/><path d="M38.07 179.262a1.296 1.296 0 1 1 0 .1z" fill="#34773b" fill-rule="evenodd" data-name="Ellipse 446"/><path d="M45.412 173.316H42.82v-1.296a2.16 2.16 0 0 0-2.16-2.16H38.07a2.16 2.16 0 0 0-2.16 2.16v1.296H33.32a2.591 2.591 0 0 0-2.591 2.591v6.91a2.591 2.591 0 0 0 2.59 2.592h12.094a2.591 2.591 0 0 0 2.591-2.592v-6.91a2.591 2.591 0 0 0-2.591-2.591Zm-7.774-1.296c0-.239.193-.432.432-.432h2.591c.239 0 .432.193.432.432v1.296h-3.455v-1.296Zm1.727 10.365a3.023 3.023 0 1 1 0-6.046 3.023 3.023 0 0 1 0 6.046Z" fill="#34773b" fill-rule="evenodd" data-name="Path 28666"/></g></g></svg>