<svg xmlns="http://www.w3.org/2000/svg" width="22" height="22" viewBox="0 -0.21 22 22"><g data-name="Icon"><path d="M6-.21h10a6 6 0 0 1 6 6v10a6 6 0 0 1-6 6H6a6 6 0 0 1-6-6v-10a6 6 0 0 1 6-6z" fill="#34773b" fill-rule="evenodd" data-name="Background"/><g data-name="Icon"><path d="m7.66 11.35 4.4 4.005a.582.582 0 0 0 .768 0l.513-.467a.464.464 0 0 0 0-.699L9.856 11l3.487-3.19a.464.464 0 0 0-.001-.698l-.513-.467a.582.582 0 0 0-.769 0l-4.4 4.005a.464.464 0 0 0 0 .7Z" fill="#fff" fill-rule="evenodd" data-name="Arrow"/></g></g></svg>