<svg xmlns="http://www.w3.org/2000/svg" width="21.406" height="22" viewBox="33 0 21.406 22"><g data-name="Icon"><path d="M43.703 22c-2.86 0-5.547-1.145-7.568-3.222C34.113 16.7 33 13.938 33 11c0-2.938 1.113-5.7 3.135-7.778C38.156 1.144 40.844 0 43.703 0s5.546 1.144 7.568 3.222c2.021 2.077 3.135 4.84 3.135 7.778 0 2.938-1.114 5.7-3.135 7.778C49.249 20.855 46.56 22 43.703 22Zm-6-7.876a6.508 6.508 0 0 0 2.238 3.26 6.116 6.116 0 0 0 3.762 1.286c1.368 0 2.669-.444 3.761-1.285a6.512 6.512 0 0 0 2.24-3.261H37.701ZM48.08 6.5c-.805 0-1.46.673-1.46 1.5s.655 1.5 1.46 1.5c.805 0 1.46-.673 1.46-1.5s-.655-1.5-1.46-1.5Zm-8.757 0c-.805 0-1.46.673-1.46 1.5s.655 1.5 1.46 1.5c.805 0 1.46-.673 1.46-1.5s-.655-1.5-1.46-1.5Z" fill="#34773b" fill-rule="evenodd" data-name="Emojis"/></g></svg>