<svg xmlns="http://www.w3.org/2000/svg" xmlns:xlink="http://www.w3.org/1999/xlink" width="500" zoomAndPan="magnify" viewBox="0 0 375 374.999991" height="500" preserveAspectRatio="xMidYMid meet" version="1.0"><defs><clipPath id="da96cbaecf"><path d="M 112.5 112.5 L 262.5 112.5 L 262.5 262.5 L 112.5 262.5 Z M 112.5 112.5 " clip-rule="nonzero"/></clipPath><clipPath id="87014430c5"><path d="M 131.25 131.25 L 243.75 131.25 L 243.75 243.75 L 131.25 243.75 Z M 131.25 131.25 " clip-rule="nonzero"/></clipPath><clipPath id="b1e416fb7a"><path d="M 148.5 131.25 L 226.5 131.25 C 231.074219 131.25 235.460938 133.066406 238.699219 136.300781 C 241.933594 139.539062 243.75 143.925781 243.75 148.5 L 243.75 226.5 C 243.75 231.074219 241.933594 235.460938 238.699219 238.699219 C 235.460938 241.933594 231.074219 243.75 226.5 243.75 L 148.5 243.75 C 143.925781 243.75 139.539062 241.933594 136.300781 238.699219 C 133.066406 235.460938 131.25 231.074219 131.25 226.5 L 131.25 148.5 C 131.25 143.925781 133.066406 139.539062 136.300781 136.300781 C 139.539062 133.066406 143.925781 131.25 148.5 131.25 Z M 148.5 131.25 " clip-rule="nonzero"/></clipPath><clipPath id="4120d24984"><path d="M 140.804688 142.847656 L 234.554688 142.847656 L 234.554688 232 L 140.804688 232 Z M 140.804688 142.847656 " clip-rule="nonzero"/></clipPath></defs><g clip-path="url(#da96cbaecf)"><path fill="#34773b" d="M 153.410156 112.5 L 221.589844 112.5 C 222.929688 112.5 224.265625 112.566406 225.601562 112.695312 C 226.933594 112.828125 228.257812 113.023438 229.570312 113.285156 C 230.886719 113.546875 232.183594 113.871094 233.464844 114.261719 C 234.75 114.652344 236.007812 115.101562 237.246094 115.613281 C 238.484375 116.125 239.695312 116.699219 240.875 117.332031 C 242.058594 117.960938 243.203125 118.648438 244.320312 119.394531 C 245.433594 120.140625 246.507812 120.9375 247.542969 121.785156 C 248.578125 122.636719 249.570312 123.535156 250.519531 124.480469 C 251.464844 125.429688 252.363281 126.421875 253.214844 127.457031 C 254.0625 128.492188 254.859375 129.566406 255.605469 130.679688 C 256.351562 131.796875 257.039062 132.941406 257.667969 134.125 C 258.300781 135.304688 258.875 136.515625 259.386719 137.753906 C 259.898438 138.992188 260.347656 140.25 260.738281 141.535156 C 261.128906 142.816406 261.453125 144.113281 261.714844 145.429688 C 261.976562 146.742188 262.171875 148.066406 262.304688 149.398438 C 262.433594 150.734375 262.5 152.070312 262.5 153.410156 L 262.5 221.589844 C 262.5 222.929688 262.433594 224.265625 262.304688 225.601562 C 262.171875 226.933594 261.976562 228.257812 261.714844 229.570312 C 261.453125 230.886719 261.128906 232.183594 260.738281 233.464844 C 260.347656 234.75 259.898438 236.007812 259.386719 237.246094 C 258.875 238.484375 258.300781 239.695312 257.667969 240.875 C 257.039062 242.058594 256.351562 243.203125 255.605469 244.320312 C 254.859375 245.433594 254.0625 246.507812 253.214844 247.542969 C 252.363281 248.578125 251.464844 249.570312 250.519531 250.519531 C 249.570312 251.464844 248.578125 252.363281 247.542969 253.214844 C 246.507812 254.0625 245.433594 254.859375 244.320312 255.605469 C 243.203125 256.351562 242.058594 257.039062 240.875 257.667969 C 239.695312 258.300781 238.484375 258.875 237.246094 259.386719 C 236.007812 259.898438 234.75 260.347656 233.464844 260.738281 C 232.183594 261.128906 230.886719 261.453125 229.570312 261.714844 C 228.257812 261.976562 226.933594 262.171875 225.601562 262.304688 C 224.265625 262.433594 222.929688 262.5 221.589844 262.5 L 153.410156 262.5 C 152.070312 262.5 150.734375 262.433594 149.398438 262.304688 C 148.066406 262.171875 146.742188 261.976562 145.429688 261.714844 C 144.113281 261.453125 142.816406 261.128906 141.535156 260.738281 C 140.25 260.347656 138.992188 259.898438 137.753906 259.386719 C 136.515625 258.875 135.304688 258.300781 134.125 257.667969 C 132.941406 257.039062 131.796875 256.351562 130.679688 255.605469 C 129.566406 254.859375 128.492188 254.0625 127.457031 253.214844 C 126.421875 252.363281 125.429688 251.464844 124.480469 250.519531 C 123.535156 249.570312 122.636719 248.578125 121.785156 247.542969 C 120.9375 246.507812 120.140625 245.433594 119.394531 244.320312 C 118.648438 243.203125 117.960938 242.058594 117.332031 240.875 C 116.699219 239.695312 116.125 238.484375 115.613281 237.246094 C 115.101562 236.007812 114.652344 234.75 114.261719 233.464844 C 113.871094 232.183594 113.546875 230.886719 113.285156 229.570312 C 113.023438 228.257812 112.828125 226.933594 112.695312 225.601562 C 112.566406 224.265625 112.5 222.929688 112.5 221.589844 L 112.5 153.410156 C 112.5 152.070312 112.566406 150.734375 112.695312 149.398438 C 112.828125 148.066406 113.023438 146.742188 113.285156 145.429688 C 113.546875 144.113281 113.871094 142.816406 114.261719 141.535156 C 114.652344 140.25 115.101562 138.992188 115.613281 137.753906 C 116.125 136.515625 116.699219 135.304688 117.332031 134.125 C 117.960938 132.941406 118.648438 131.796875 119.394531 130.679688 C 120.140625 129.566406 120.9375 128.492188 121.785156 127.457031 C 122.636719 126.421875 123.535156 125.429688 124.480469 124.480469 C 125.429688 123.535156 126.421875 122.636719 127.457031 121.785156 C 128.492188 120.9375 129.566406 120.140625 130.679688 119.394531 C 131.796875 118.648438 132.941406 117.960938 134.125 117.332031 C 135.304688 116.699219 136.515625 116.125 137.753906 115.613281 C 138.992188 115.101562 140.25 114.652344 141.535156 114.261719 C 142.816406 113.871094 144.113281 113.546875 145.429688 113.285156 C 146.742188 113.023438 148.066406 112.828125 149.398438 112.695312 C 150.734375 112.566406 152.070312 112.5 153.410156 112.5 Z M 153.410156 112.5 " fill-opacity="1" fill-rule="evenodd"/></g><path fill="#ffffff" d="M 164.726562 191.316406 L 194.726562 218.625 C 195.089844 218.941406 195.496094 219.1875 195.945312 219.355469 C 196.398438 219.527344 196.863281 219.609375 197.34375 219.609375 C 197.828125 219.609375 198.292969 219.527344 198.746094 219.355469 C 199.195312 219.1875 199.601562 218.941406 199.964844 218.625 L 203.460938 215.441406 C 203.632812 215.292969 203.785156 215.128906 203.917969 214.945312 C 204.054688 214.765625 204.167969 214.570312 204.261719 214.367188 C 204.355469 214.160156 204.425781 213.949219 204.472656 213.726562 C 204.519531 213.507812 204.542969 213.285156 204.542969 213.058594 C 204.542969 212.832031 204.519531 212.609375 204.472656 212.386719 C 204.425781 212.167969 204.355469 211.953125 204.261719 211.75 C 204.167969 211.542969 204.054688 211.351562 203.917969 211.167969 C 203.785156 210.988281 203.632812 210.824219 203.460938 210.675781 L 179.699219 188.933594 L 203.476562 167.183594 C 203.644531 167.03125 203.796875 166.867188 203.929688 166.6875 C 204.0625 166.507812 204.175781 166.3125 204.269531 166.109375 C 204.363281 165.902344 204.433594 165.6875 204.480469 165.46875 C 204.527344 165.25 204.550781 165.027344 204.550781 164.800781 C 204.550781 164.574219 204.527344 164.351562 204.476562 164.132812 C 204.429688 163.914062 204.359375 163.699219 204.265625 163.496094 C 204.171875 163.289062 204.058594 163.097656 203.925781 162.917969 C 203.789062 162.734375 203.636719 162.570312 203.46875 162.421875 L 199.96875 159.238281 C 199.609375 158.917969 199.203125 158.675781 198.75 158.503906 C 198.296875 158.335938 197.832031 158.25 197.347656 158.25 C 196.867188 158.25 196.398438 158.335938 195.949219 158.503906 C 195.496094 158.675781 195.089844 158.917969 194.726562 159.238281 L 164.726562 186.546875 C 164.558594 186.695312 164.402344 186.859375 164.269531 187.039062 C 164.132812 187.222656 164.019531 187.414062 163.925781 187.621094 C 163.832031 187.828125 163.761719 188.039062 163.710938 188.261719 C 163.664062 188.480469 163.640625 188.707031 163.640625 188.933594 C 163.640625 189.15625 163.664062 189.382812 163.710938 189.601562 C 163.761719 189.824219 163.832031 190.035156 163.925781 190.242188 C 164.019531 190.449219 164.132812 190.640625 164.269531 190.824219 C 164.402344 191.003906 164.558594 191.167969 164.726562 191.316406 Z M 164.726562 191.316406 " fill-opacity="1" fill-rule="evenodd"/><g clip-path="url(#87014430c5)"><g clip-path="url(#b1e416fb7a)"><path fill="#34773b" d="M 131.25 131.25 L 243.75 131.25 L 243.75 243.75 L 131.25 243.75 Z M 131.25 131.25 " fill-opacity="1" fill-rule="nonzero"/></g></g><g clip-path="url(#4120d24984)"><path fill="#ffffff" d="M 231.800781 145.347656 C 231.042969 144.585938 230.164062 144 229.171875 143.589844 C 228.179688 143.175781 227.144531 142.972656 226.070312 142.976562 L 148.898438 142.976562 C 148.367188 142.976562 147.839844 143.027344 147.320312 143.128906 C 146.796875 143.234375 146.292969 143.386719 145.800781 143.589844 C 145.308594 143.792969 144.839844 144.042969 144.398438 144.339844 C 143.957031 144.636719 143.546875 144.972656 143.171875 145.347656 C 142.796875 145.722656 142.460938 146.132812 142.164062 146.574219 C 141.871094 147.015625 141.621094 147.484375 141.417969 147.976562 C 141.210938 148.464844 141.058594 148.972656 140.957031 149.496094 C 140.851562 150.015625 140.800781 150.542969 140.800781 151.074219 L 140.800781 223.875 C 140.800781 224.40625 140.851562 224.933594 140.957031 225.457031 C 141.058594 225.976562 141.214844 226.484375 141.417969 226.976562 C 141.621094 227.46875 141.871094 227.933594 142.164062 228.375 C 142.460938 228.816406 142.796875 229.226562 143.171875 229.601562 C 143.546875 229.980469 143.957031 230.316406 144.398438 230.609375 C 144.84375 230.90625 145.308594 231.15625 145.800781 231.359375 C 146.292969 231.5625 146.796875 231.714844 147.320312 231.820312 C 147.839844 231.921875 148.367188 231.976562 148.898438 231.972656 L 226.070312 231.972656 C 226.601562 231.976562 227.128906 231.921875 227.652344 231.820312 C 228.171875 231.714844 228.679688 231.5625 229.171875 231.359375 C 229.664062 231.15625 230.128906 230.90625 230.570312 230.609375 C 231.015625 230.316406 231.421875 229.980469 231.800781 229.601562 C 232.175781 229.226562 232.511719 228.816406 232.804688 228.375 C 233.101562 227.933594 233.351562 227.46875 233.554688 226.976562 C 233.757812 226.484375 233.910156 225.976562 234.015625 225.457031 C 234.121094 224.933594 234.171875 224.40625 234.171875 223.875 L 234.171875 151.074219 C 234.175781 150 233.96875 148.964844 233.558594 147.972656 C 233.148438 146.980469 232.5625 146.105469 231.800781 145.347656 Z M 229.472656 223.875 C 229.472656 224.328125 229.386719 224.761719 229.214844 225.179688 C 229.042969 225.59375 228.796875 225.964844 228.476562 226.28125 C 228.160156 226.601562 227.789062 226.847656 227.375 227.019531 C 226.957031 227.191406 226.523438 227.277344 226.070312 227.277344 L 148.898438 227.277344 C 148.449219 227.277344 148.015625 227.191406 147.597656 227.019531 C 147.179688 226.84375 146.8125 226.601562 146.496094 226.28125 C 146.175781 225.960938 145.929688 225.59375 145.757812 225.175781 C 145.585938 224.761719 145.5 224.328125 145.5 223.875 L 145.5 151.074219 C 145.5 150.625 145.585938 150.1875 145.757812 149.773438 C 145.929688 149.355469 146.175781 148.988281 146.492188 148.667969 C 146.8125 148.347656 147.179688 148.101562 147.597656 147.929688 C 148.015625 147.757812 148.449219 147.671875 148.898438 147.671875 L 226.070312 147.671875 C 226.523438 147.671875 226.957031 147.761719 227.375 147.933594 C 227.789062 148.105469 228.15625 148.351562 228.476562 148.667969 C 228.796875 148.988281 229.042969 149.355469 229.214844 149.773438 C 229.386719 150.191406 229.472656 150.625 229.472656 151.074219 Z M 229.472656 223.875 " fill-opacity="1" fill-rule="nonzero"/></g><path fill="#ffffff" d="M 172.507812 184.394531 C 173.265625 184.394531 174.011719 184.324219 174.753906 184.175781 C 175.496094 184.027344 176.214844 183.808594 176.910156 183.519531 C 177.609375 183.230469 178.273438 182.875 178.902344 182.457031 C 179.53125 182.035156 180.109375 181.558594 180.644531 181.027344 C 181.179688 180.492188 181.65625 179.910156 182.078125 179.28125 C 182.496094 178.652344 182.851562 177.988281 183.140625 177.292969 C 183.429688 176.59375 183.648438 175.875 183.792969 175.132812 C 183.941406 174.390625 184.015625 173.644531 184.015625 172.886719 C 184.015625 172.132812 183.941406 171.382812 183.792969 170.644531 C 183.648438 169.902344 183.429688 169.183594 183.140625 168.484375 C 182.851562 167.785156 182.496094 167.121094 182.078125 166.496094 C 181.65625 165.867188 181.179688 165.285156 180.644531 164.75 C 180.109375 164.214844 179.53125 163.738281 178.902344 163.320312 C 178.273438 162.898438 177.609375 162.546875 176.910156 162.257812 C 176.214844 161.96875 175.496094 161.75 174.753906 161.601562 C 174.011719 161.453125 173.265625 161.378906 172.507812 161.378906 C 171.753906 161.378906 171.003906 161.453125 170.261719 161.601562 C 169.523438 161.75 168.800781 161.96875 168.105469 162.257812 C 167.40625 162.546875 166.742188 162.898438 166.113281 163.320312 C 165.488281 163.738281 164.90625 164.214844 164.371094 164.75 C 163.835938 165.285156 163.359375 165.867188 162.941406 166.496094 C 162.519531 167.121094 162.164062 167.785156 161.875 168.484375 C 161.585938 169.183594 161.367188 169.902344 161.222656 170.644531 C 161.074219 171.382812 161 172.132812 161 172.886719 C 161 173.644531 161.074219 174.390625 161.222656 175.132812 C 161.371094 175.875 161.589844 176.59375 161.878906 177.289062 C 162.167969 177.988281 162.523438 178.652344 162.945312 179.277344 C 163.363281 179.90625 163.839844 180.488281 164.375 181.023438 C 164.910156 181.554688 165.488281 182.03125 166.117188 182.453125 C 166.746094 182.871094 167.410156 183.226562 168.105469 183.515625 C 168.804688 183.804688 169.523438 184.023438 170.265625 184.171875 C 171.003906 184.320312 171.753906 184.394531 172.507812 184.394531 Z M 172.507812 166.078125 C 172.957031 166.078125 173.398438 166.121094 173.835938 166.210938 C 174.273438 166.296875 174.699219 166.425781 175.113281 166.597656 C 175.527344 166.769531 175.917969 166.980469 176.289062 167.226562 C 176.664062 167.476562 177.007812 167.757812 177.320312 168.074219 C 177.636719 168.390625 177.921875 168.734375 178.167969 169.105469 C 178.417969 169.476562 178.625 169.871094 178.796875 170.285156 C 178.96875 170.695312 179.097656 171.121094 179.183594 171.5625 C 179.273438 172 179.316406 172.441406 179.316406 172.890625 C 179.316406 173.335938 179.273438 173.777344 179.183594 174.21875 C 179.097656 174.65625 178.96875 175.082031 178.796875 175.496094 C 178.625 175.90625 178.417969 176.300781 178.167969 176.671875 C 177.917969 177.042969 177.636719 177.386719 177.320312 177.703125 C 177.003906 178.019531 176.660156 178.300781 176.289062 178.550781 C 175.917969 178.796875 175.523438 179.007812 175.113281 179.179688 C 174.699219 179.351562 174.273438 179.480469 173.835938 179.566406 C 173.394531 179.652344 172.953125 179.699219 172.507812 179.699219 C 172.058594 179.699219 171.617188 179.652344 171.179688 179.566406 C 170.738281 179.480469 170.3125 179.351562 169.902344 179.179688 C 169.488281 179.007812 169.09375 178.796875 168.722656 178.550781 C 168.351562 178.300781 168.007812 178.019531 167.691406 177.703125 C 167.375 177.386719 167.09375 177.042969 166.84375 176.671875 C 166.597656 176.300781 166.386719 175.90625 166.214844 175.496094 C 166.042969 175.082031 165.914062 174.65625 165.828125 174.21875 C 165.742188 173.777344 165.695312 173.335938 165.695312 172.890625 C 165.699219 172.441406 165.742188 172 165.828125 171.5625 C 165.917969 171.121094 166.046875 170.695312 166.21875 170.285156 C 166.390625 169.871094 166.597656 169.476562 166.847656 169.105469 C 167.097656 168.734375 167.378906 168.390625 167.695312 168.074219 C 168.011719 167.757812 168.355469 167.476562 168.726562 167.230469 C 169.097656 166.980469 169.488281 166.769531 169.902344 166.597656 C 170.316406 166.429688 170.742188 166.296875 171.179688 166.210938 C 171.617188 166.125 172.0625 166.078125 172.507812 166.078125 Z M 172.507812 166.078125 " fill-opacity="1" fill-rule="nonzero"/><path fill="#ffffff" d="M 202.449219 173.621094 C 202.050781 172.886719 201.496094 172.304688 200.785156 171.863281 C 200.074219 171.425781 199.304688 171.191406 198.472656 171.164062 C 197.691406 171.132812 196.949219 171.285156 196.246094 171.621094 C 195.539062 171.953125 194.949219 172.429688 194.480469 173.054688 L 176.925781 196.1875 L 172.257812 191.519531 C 172.015625 191.277344 171.75 191.0625 171.464844 190.878906 C 171.175781 190.695312 170.871094 190.542969 170.550781 190.425781 C 170.230469 190.304688 169.902344 190.222656 169.5625 190.171875 C 169.222656 190.125 168.882812 190.113281 168.542969 190.140625 C 168.203125 190.164062 167.867188 190.226562 167.539062 190.320312 C 167.210938 190.417969 166.898438 190.550781 166.597656 190.714844 C 166.296875 190.878906 166.019531 191.074219 165.761719 191.296875 C 165.503906 191.523438 165.273438 191.773438 165.070312 192.046875 L 154.71875 205.964844 C 154.457031 206.320312 154.246094 206.703125 154.089844 207.117188 C 153.933594 207.53125 153.835938 207.957031 153.796875 208.398438 C 153.757812 208.839844 153.78125 209.277344 153.867188 209.710938 C 153.949219 210.144531 154.09375 210.558594 154.292969 210.953125 C 154.492188 211.347656 154.738281 211.707031 155.039062 212.03125 C 155.339844 212.359375 155.675781 212.636719 156.054688 212.867188 C 156.429688 213.097656 156.832031 213.273438 157.257812 213.390625 C 157.683594 213.511719 158.117188 213.570312 158.558594 213.570312 L 216.4375 213.539062 C 216.898438 213.539062 217.355469 213.472656 217.796875 213.335938 C 218.242188 213.203125 218.660156 213.011719 219.046875 212.757812 C 219.433594 212.5 219.777344 212.199219 220.074219 211.84375 C 220.375 211.488281 220.617188 211.097656 220.800781 210.671875 C 221.101562 209.996094 221.230469 209.289062 221.195312 208.550781 C 221.160156 207.8125 220.960938 207.117188 220.601562 206.472656 Z M 158.472656 208.796875 C 158.476562 208.789062 158.484375 208.777344 158.488281 208.769531 L 168.9375 194.84375 L 173.601562 199.511719 C 173.84375 199.753906 174.105469 199.964844 174.394531 200.148438 C 174.679688 200.335938 174.980469 200.488281 175.300781 200.605469 C 175.621094 200.726562 175.949219 200.808594 176.285156 200.859375 C 176.621094 200.90625 176.960938 200.921875 177.300781 200.894531 C 177.640625 200.871094 177.972656 200.8125 178.300781 200.71875 C 178.628906 200.625 178.941406 200.496094 179.238281 200.332031 C 179.539062 200.167969 179.816406 199.976562 180.074219 199.753906 C 180.335938 199.53125 180.566406 199.285156 180.769531 199.015625 L 198.335938 175.894531 L 216.429688 208.84375 Z M 158.472656 208.796875 " fill-opacity="1" fill-rule="nonzero"/></svg>