<svg xmlns="http://www.w3.org/2000/svg" width="12.602" height="12.602" viewBox="54.563 7.825 12.602 12.602"><g data-name="chat-2"><g data-name="Group 5"><path d="M60.864 7.825a6.308 6.308 0 0 0-6.3 6.301v5.907c0 .218.176.394.393.394h5.907a6.308 6.308 0 0 0 6.301-6.3 6.308 6.308 0 0 0-6.3-6.302Zm.394 7.877h-3.15a.394.394 0 0 1 0-.788h3.15a.394.394 0 0 1 0 .788Zm2.363-2.363h-5.513a.394.394 0 0 1 0-.788h5.513a.394.394 0 0 1 0 .788Z" fill="#34773b" fill-rule="evenodd" data-name="Path 7"/></g></g></svg>