<svg xmlns="http://www.w3.org/2000/svg" width="33.618" height="18.964" viewBox="118.093 -0.05 33.618 18.964"><g data-name="Group 10"><g data-name="Ellipse 11"><path d="M118.093 9.382a9.482 9.482 0 1 1 0 .1z" fill="#34773b" fill-rule="evenodd"/><path d="M119.093 9.387a8.482 8.482 0 1 1 0 .09z" stroke-linejoin="round" stroke-linecap="round" stroke-width="1.78908" stroke="#fff" fill="transparent"/></g><g data-name="Ellipse 12"><path d="M132.747 9.382a9.482 9.482 0 1 1 0 .1z" fill="#f31954" fill-rule="evenodd"/><path d="M133.747 9.387a8.482 8.482 0 1 1 0 .09z" stroke-linejoin="round" stroke-linecap="round" stroke-width="1.78908" stroke="#fff" fill="transparent"/></g><g data-name="Group 8"><path d="M129.163 6.463a.642.642 0 0 0-.49-.382.643.643 0 0 0-.496.118.646.646 0 0 0-.26.438c-.095.713-.207.93-.25.992-.192.268-.422.334-.742.427-.322.094-.699.203-1.135.546v4.066a4.04 4.04 0 0 0 1.207.224h2.104c.51 0 .923-.413.923-.923a.374.374 0 0 0-.021-.122.796.796 0 0 0 .524-.748.493.493 0 0 0-.12-.326.808.808 0 0 0 .386-.69.512.512 0 0 0-.037-.187.667.667 0 0 0 .607-.6.656.656 0 0 0-.65-.699h-1.857c.132-.286.342-.81.4-1.325a1.58 1.58 0 0 0-.093-.809Z" fill="#fff" fill-rule="evenodd" data-name="Path 5"/><path d="M123.937 12.892h1.398a.15.15 0 0 0 .151-.151V8.444a.151.151 0 0 0-.151-.152h-1.398a.152.152 0 0 0-.151.152v4.297c0 .085.068.151.151.151Z" fill="#fff" fill-rule="evenodd" data-name="Path 6"/></g><g data-name="heart"><g data-name="Group 9"><path d="M144.19 6.533a2.307 2.307 0 0 0-1.777.821 2.276 2.276 0 0 0-1.777-.82 2.328 2.328 0 0 0-2.328 2.327c0 2.204 3.846 4.355 4.002 4.438a.187.187 0 0 0 .207 0c.156-.083 4.002-2.203 4.002-4.438a2.328 2.328 0 0 0-2.328-2.328Z" fill="#fff" fill-rule="evenodd" data-name="Path 9"/></g></g></g></svg>