<svg xmlns="http://www.w3.org/2000/svg" width="14.002" height="12.602" viewBox="8.455 7.825 14.002 12.602"><g data-name="Group 4"><path d="M18.39 8.549a1.186 1.186 0 0 0-.907-.706 1.187 1.187 0 0 0-.915.218 1.193 1.193 0 0 0-.48.81c-.176 1.316-.383 1.719-.461 1.831-.356.496-.782.619-1.372.79-.594.173-1.291.375-2.098 1.008v7.513c.787.285 1.73.414 2.232.414h3.887c.94 0 1.705-.764 1.705-1.705a.69.69 0 0 0-.04-.227 1.47 1.47 0 0 0 .97-1.38.91.91 0 0 0-.221-.603c.428-.263.71-.736.71-1.274a.946.946 0 0 0-.066-.347c.596-.061 1.078-.526 1.12-1.109a1.211 1.211 0 0 0-.35-.938 1.195 1.195 0 0 0-.849-.353h-3.433c.244-.529.633-1.495.74-2.447.067-.571.008-1.075-.171-1.495Z" fill="#34773b" fill-rule="evenodd" data-name="Path 5"/><path d="M8.735 20.427h2.582c.157 0 .28-.123.28-.28V12.21a.28.28 0 0 0-.28-.28H8.735a.28.28 0 0 0-.28.28v7.938c0 .157.126.28.28.28Z" fill="#34773b" fill-rule="evenodd" data-name="Path 6"/></g></svg>