<svg xmlns="http://www.w3.org/2000/svg" width="19.633" height="19.633" viewBox="14594.316 6182.366 19.633 19.633"><g data-name="CompositeLayer"><path d="M14604.133 6182.366c-5.413 0-9.817 4.404-9.817 9.817v9.202c0 .34.275.614.614.614h9.203c5.412 0 9.816-4.404 9.816-9.816 0-5.413-4.404-9.817-9.816-9.817Zm.613 12.27h-4.908a.614.614 0 0 1 0-1.226h4.908a.614.614 0 0 1 0 1.227Zm3.682-3.68h-8.59a.614.614 0 0 1 0-1.228h8.59a.614.614 0 0 1 0 1.228Z" fill="#34773b" fill-rule="evenodd" data-name="Path 7"/><g data-name="Group 12666"><path d="M14606.34 6186.726a.892.892 0 0 0-.683-.53.893.893 0 0 0-.688.164.897.897 0 0 0-.36.609c-.133.99-.289 1.292-.348 1.376-.267.373-.587.466-1.031.594-.446.13-.97.282-1.577.758v5.649a5.612 5.612 0 0 0 1.678.311h2.922c.708 0 1.282-.574 1.282-1.282a.519.519 0 0 0-.03-.17c.426-.154.73-.562.73-1.038a.684.684 0 0 0-.167-.453c.322-.198.535-.554.535-.958a.711.711 0 0 0-.05-.26c.448-.047.81-.397.841-.835a.91.91 0 0 0-.263-.705.899.899 0 0 0-.638-.265h-2.58c.182-.398.475-1.124.555-1.84.05-.43.006-.809-.129-1.125Z" fill="#fff" fill-rule="evenodd" data-name="Path 5"/><path d="M14599.08 6195.657h1.941c.118 0 .21-.092.21-.21v-5.969a.21.21 0 0 0-.21-.21h-1.94a.211.211 0 0 0-.211.21v5.969c0 .118.094.21.21.21Z" fill="#fff" fill-rule="evenodd" data-name="Path 6"/></g></g></svg>