<svg xmlns="http://www.w3.org/2000/svg" width="31" height="31" viewBox="0.146 0.146 31 31"><g data-name="calendar"><path d="M.146.146h31v31h-31v-31z" fill-rule="evenodd" data-name="Rectangle 1789"/><path d="M23.36 5.191h-1.298V3.893a1.298 1.298 0 0 0-2.595 0v1.298H11.68V3.893a1.298 1.298 0 0 0-2.596 0v1.298H7.787a3.893 3.893 0 0 0-3.894 3.893v15.574a3.893 3.893 0 0 0 3.894 3.893H23.36a3.893 3.893 0 0 0 3.893-3.893V9.084a3.893 3.893 0 0 0-3.893-3.893ZM7.787 7.787h1.297v1.297a1.298 1.298 0 0 0 2.596 0V7.787h7.787v1.297a1.298 1.298 0 1 0 2.595 0V7.787h1.298c.717 0 1.298.58 1.298 1.297v5.191H6.488v-5.19c0-.717.582-1.298 1.299-1.298ZM23.36 25.955H7.787a1.298 1.298 0 0 1-1.298-1.297V16.87h18.169v7.787c0 .716-.581 1.297-1.298 1.297Z" fill-rule="evenodd" data-name="Path 28702"/><path d="M9.146 20.546a1.5 1.5 0 1 1 0 .1z" fill-rule="evenodd" data-name="Ellipse 461"/><path d="M20.764 19.467h-5.19a1.298 1.298 0 1 0 0 2.595h5.19a1.298 1.298 0 0 0 0-2.595Z" fill-rule="evenodd" data-name="Path 28703"/></g></svg>