<svg xmlns="http://www.w3.org/2000/svg" width="23.658" height="23.623" viewBox="2.821 2.825 23.658 23.623"><path d="M22.945 6.3A11.772 11.772 0 0 0 3.781 19.25c.113.233.15.496.106.752l-1.036 4.98c-.081.388.038.79.318 1.071.228.226.538.35.859.342h.235l5.039-1.013c.256-.03.515.006.753.106A11.772 11.772 0 0 0 23.004 6.324ZM9.914 15.8a1.177 1.177 0 1 1 0-2.354 1.177 1.177 0 0 1 0 2.354Zm4.709 0a1.177 1.177 0 1 1 0-2.354 1.177 1.177 0 0 1 0 2.354Zm4.708 0a1.177 1.177 0 1 1 0-2.354 1.177 1.177 0 0 1 0 2.354Z" fill="#fff" fill-rule="evenodd" data-name="Path 28661"/></svg>