<svg xmlns="http://www.w3.org/2000/svg" width="26" height="26" viewBox="-0.049 -0.049 26 26"><g data-name="people"><path d="M-.05-.05h26v26h-26v-26z" fill="#34773b" fill-rule="evenodd" data-name="Rectangle 1736"/><path d="M9.722 11.886a4.328 4.328 0 1 0 0-8.655 4.328 4.328 0 0 0 0 8.655Z" fill="#34773b" fill-rule="evenodd" data-name="Path 24"/><path d="M18.378 14.05a3.246 3.246 0 1 0 0-6.491 3.246 3.246 0 0 0 0 6.491Z" fill="#34773b" fill-rule="evenodd" data-name="Path 25"/><path d="M22.705 21.623c.598 0 1.082-.484 1.082-1.082a5.41 5.41 0 0 0-8.72-4.273 7.573 7.573 0 0 0-12.918 5.355c0 .598.485 1.082 1.082 1.082h12.983c.597 0 1.082-.484 1.082-1.082" fill="#34773b" fill-rule="evenodd" data-name="Path 26"/></g></svg>