<svg xmlns="http://www.w3.org/2000/svg" width="21.638" height="19.474" viewBox="1235.198 5431.28 21.638 19.474"><g data-name="CompositeLayer"><path d="M1255.754 5449.672c.598 0 1.082-.484 1.082-1.081a5.41 5.41 0 0 0-8.72-4.274 7.573 7.573 0 0 0-12.918 5.355c0 .598.485 1.082 1.082 1.082h12.983c.598 0 1.082-.484 1.082-1.082" fill="#34773b" fill-rule="evenodd" data-name="Path 26"/><path d="M1251.427 5442.1a3.246 3.246 0 1 0 0-6.492 3.246 3.246 0 0 0 0 6.491Z" fill="#34773b" fill-rule="evenodd" data-name="Path 25"/><path d="M1242.772 5439.935a4.328 4.328 0 1 0 0-8.655 4.328 4.328 0 0 0 0 8.655Z" fill="#34773b" fill-rule="evenodd" data-name="Path 24"/></g></svg>