<svg xmlns="http://www.w3.org/2000/svg" width="20" height="12" viewBox="124 172 20 12"><g data-name="video"><g data-name="Path 28665"><path d="m144 174-6 4 6 4v-8Z" fill="#34773b" fill-rule="evenodd"/><path d="m144 174-6 4 6 4v-8Z" stroke-linejoin="round" stroke-linecap="round" stroke-width="2" stroke="#34773b" fill="transparent"/></g><g data-name="Rectangle 1760"><path d="M126 172h10a2 2 0 0 1 2 2v8a2 2 0 0 1-2 2h-10a2 2 0 0 1-2-2v-8a2 2 0 0 1 2-2z" fill="#34773b" fill-rule="evenodd"/><path d="M126 172h10a2 2 0 0 1 2 2v8a2 2 0 0 1-2 2h-10a2 2 0 0 1-2-2v-8a2 2 0 0 1 2-2z" stroke-linejoin="round" stroke-linecap="round" stroke-width="2" stroke="#34773b" fill="transparent"/></g></g></svg>