<svg xmlns="http://www.w3.org/2000/svg" width="24" height="24" viewBox="0 0 24 24">
  <g id="Group_12548" data-name="Group 12548" transform="translate(-74 -770)">
    <g id="Group_12513" data-name="Group 12513" transform="translate(68)">
      <g id="Group_12514" data-name="Group 12514" transform="translate(-170)">
        <path id="FontAwsome_basketball-ball_" data-name="FontAwsome (basketball-ball)" d="M10.273,8.111a11.929,11.929,0,0,0-5.913,2.6L8.1,14.46A10.777,10.777,0,0,0,10.273,8.111ZM12,18.355l7.64-7.64A11.96,11.96,0,0,0,12.6,8a13.058,13.058,0,0,1-2.84,8.115Zm-9.285-6a11.929,11.929,0,0,0-2.6,5.913A10.766,10.766,0,0,0,6.46,16.1ZM15.885,22.24A13.1,13.1,0,0,1,24,19.4a11.96,11.96,0,0,0-2.715-7.04L13.645,20l2.24,2.24ZM12,21.645l-7.64,7.64A11.991,11.991,0,0,0,11.4,32a13.1,13.1,0,0,1,2.84-8.115Zm9.285,6a11.929,11.929,0,0,0,2.6-5.913A10.82,10.82,0,0,0,17.54,23.9ZM8.115,17.76A13.029,13.029,0,0,1,0,20.6a11.96,11.96,0,0,0,2.715,7.04L10.355,20Zm5.613,14.129a11.929,11.929,0,0,0,5.913-2.6L15.9,25.54a10.831,10.831,0,0,0-2.168,6.348Z" transform="translate(176 762)"/>
      </g>
    </g>
  </g>
</svg>
